<?xml version="1.0" standalone="no"?>
<!DOCTYPE svg PUBLIC "-//W3C//DTD SVG 20010904//EN"
 "http://www.w3.org/TR/2001/REC-SVG-20010904/DTD/svg10.dtd">
<svg version="1.0" xmlns="http://www.w3.org/2000/svg"
 width="1280.000000pt" height="706.000000pt" viewBox="0 0 1280.000000 706.000000"
 preserveAspectRatio="xMidYMid meet">
<metadata>
Created by potrace 1.15, written by Peter Selinger 2001-2017
</metadata>
<g transform="translate(0.000000,706.000000) scale(0.100000,-0.100000)"
fill="#2196f3" stroke="none">
<path d="M12092 7044 c-94 -25 -196 -100 -260 -191 l-23 -33 43 0 c73 -1 189
-26 278 -60 70 -27 95 -44 145 -94 34 -34 70 -72 81 -86 10 -14 18 -23 17 -21
-2 2 32 25 75 51 42 26 106 65 141 88 35 23 67 39 72 36 12 -7 -7 43 -36 91
-55 95 -188 183 -330 220 -72 18 -133 18 -203 -1z"/>
<path d="M5480 6990 c-539 -26 -975 -136 -1100 -278 -61 -69 -63 -137 -6 -191
47 -44 248 -121 445 -169 l73 -18 -63 -39 c-230 -140 -416 -324 -577 -567 -72
-110 -200 -354 -242 -463 -13 -33 -24 -61 -26 -63 -3 -5 -126 72 -244 152
-360 244 -698 584 -939 945 -43 64 -135 213 -206 331 -152 255 -184 300 -238
331 -81 45 -261 36 -440 -22 -578 -189 -1102 -780 -1439 -1624 -214 -535 -381
-1259 -442 -1920 -61 -648 -38 -1421 55 -1889 24 -118 31 -134 66 -142 92 -24
273 207 303 388 9 49 11 127 7 240 l-6 167 53 29 c65 37 163 142 199 214 34
68 43 122 57 338 6 96 13 180 15 186 2 6 21 14 43 17 50 6 114 49 179 121 64
69 92 128 113 230 16 79 17 81 43 78 42 -5 120 25 165 64 43 37 58 65 172 316
77 170 90 190 83 127 -7 -61 16 -106 60 -117 44 -11 111 3 165 34 40 23 44 24
38 8 -13 -34 -36 -155 -36 -190 0 -97 118 -112 228 -28 18 14 35 24 38 22 2
-3 0 -29 -6 -58 -5 -29 -10 -77 -10 -106 0 -45 4 -56 26 -73 33 -26 67 -26
123 -1 24 11 44 20 45 20 1 0 -1 -26 -4 -57 -13 -114 21 -158 101 -134 22 7
61 31 85 53 l44 41 0 -71 c0 -84 19 -115 68 -115 39 0 99 41 132 90 l25 37 6
-75 c3 -41 9 -82 13 -91 6 -13 -8 -37 -52 -90 -32 -40 -74 -95 -93 -123 -102
-151 -105 -289 -7 -342 25 -14 55 -18 128 -18 l95 1 125 79 c69 43 193 114
275 156 143 73 312 146 319 138 2 -2 -1 -35 -6 -74 -11 -82 -3 -248 18 -389
48 -324 183 -655 376 -924 33 -46 59 -85 57 -87 -2 -2 -29 -13 -59 -25 -138
-54 -280 -150 -381 -258 -122 -131 -179 -258 -186 -417 -3 -71 0 -114 10 -147
l15 -47 -48 -11 c-102 -24 -141 -77 -85 -114 112 -74 745 -136 1690 -167 397
-13 1626 -7 1955 10 882 46 1335 102 1385 173 20 30 3 55 -53 80 -26 11 -48
21 -49 22 -1 1 4 24 12 51 20 64 19 183 -1 264 -29 119 -87 215 -194 322 -104
104 -200 170 -338 230 -48 20 -86 41 -85 46 1 4 39 64 85 133 192 288 303 596
339 939 14 132 7 295 -14 364 -15 47 -15 48 6 41 131 -38 359 -157 562 -293
l140 -94 85 -4 c74 -4 91 -1 130 19 103 53 106 183 10 342 -19 31 -74 104
-122 161 l-88 106 0 59 0 59 58 -59 c52 -54 62 -60 99 -60 58 0 73 24 73 113
l0 69 46 -41 c83 -73 164 -75 183 -5 5 19 8 41 6 51 -2 10 -6 37 -8 60 l-5 41
46 -24 c59 -31 96 -31 129 2 25 25 25 29 20 107 -4 45 -10 95 -13 110 l-7 29
47 -36 c82 -62 179 -72 212 -20 19 28 15 108 -10 200 l-13 51 56 -28 c70 -36
146 -40 179 -9 28 26 36 60 28 113 l-6 42 30 -55 c16 -30 62 -129 102 -220 97
-219 155 -278 278 -284 l44 -3 16 -79 c22 -107 53 -166 130 -245 68 -69 132
-109 175 -109 14 0 27 -6 30 -12 2 -7 10 -109 18 -226 15 -208 16 -214 50
-285 43 -91 139 -197 207 -229 l49 -23 -5 -175 c-4 -107 -2 -200 5 -240 29
-176 215 -409 307 -386 14 4 29 18 35 34 30 76 76 395 101 697 16 198 16 882
0 1095 -94 1215 -417 2274 -899 2946 -362 506 -837 830 -1245 851 -137 7 -188
-6 -243 -62 -22 -23 -103 -147 -179 -276 -218 -366 -318 -508 -512 -729 -160
-182 -314 -323 -517 -474 -119 -89 -366 -250 -372 -244 -2 2 -25 64 -50 138
-54 157 -171 403 -244 510 -95 142 -243 284 -404 390 -67 44 -75 60 -32 60 46
0 294 68 357 99 87 41 155 102 164 146 8 45 -12 103 -49 142 -35 37 -145 93
-266 135 -352 122 -887 182 -1401 158z m3842 -64 c422 -81 878 -450 1207 -978
424 -678 713 -1728 781 -2828 13 -213 13 -719 0 -930 -19 -304 -75 -718 -100
-744 -12 -12 -93 66 -136 131 -20 31 -47 86 -60 122 -21 64 -22 82 -27 536 -6
463 -12 594 -43 910 -57 595 -197 1129 -409 1560 -74 151 -227 402 -255 420
-6 4 10 -26 36 -67 263 -409 438 -984 549 -1798 38 -285 73 -1010 48 -1010 -6
0 -35 21 -64 48 -59 53 -124 147 -139 201 -5 20 -17 133 -25 251 -57 776 -176
1294 -370 1606 -69 110 -80 107 -26 -7 129 -270 211 -591 286 -1120 19 -133
20 -219 2 -219 -24 0 -102 56 -146 106 -63 70 -86 130 -116 294 -53 296 -105
465 -206 679 -53 112 -156 282 -179 296 -5 3 15 -43 45 -102 29 -60 72 -156
94 -216 77 -201 161 -505 161 -579 0 -36 -1 -38 -33 -38 -38 0 -102 41 -130
83 -9 14 -39 79 -67 143 -28 64 -105 223 -172 353 -66 130 -160 313 -208 406
-167 328 -278 658 -344 1022 -28 154 -56 379 -57 463 0 40 -3 50 -9 35 -12
-28 -12 -289 0 -420 35 -372 123 -660 330 -1082 130 -264 187 -423 197 -550
l6 -73 -32 0 c-74 0 -192 88 -287 213 -82 109 -250 467 -360 767 -59 161 -67
162 -28 2 78 -327 226 -670 359 -835 45 -55 60 -83 81 -155 14 -48 28 -117 31
-154 7 -79 0 -83 -73 -48 -109 53 -240 238 -416 587 -63 126 -128 258 -143
296 -15 37 -30 65 -32 63 -8 -8 84 -269 132 -376 54 -122 176 -357 215 -415
36 -55 91 -308 73 -338 -25 -42 -137 46 -217 171 -84 132 -185 363 -257 589
-12 40 -24 71 -26 69 -9 -8 49 -262 82 -362 42 -127 120 -296 170 -365 26 -36
38 -68 49 -129 9 -45 16 -95 16 -111 0 -45 -33 -37 -93 23 -88 90 -195 303
-284 568 -26 77 -48 138 -49 137 -1 -1 6 -52 17 -112 24 -136 57 -248 114
-385 36 -88 45 -124 55 -219 15 -140 8 -153 -50 -96 -78 76 -178 317 -247 595
-27 111 -28 113 -31 66 -5 -75 24 -233 64 -358 32 -98 37 -127 39 -221 1 -59
-1 -106 -5 -105 -4 2 -37 30 -72 63 -59 54 -68 67 -86 130 -28 97 -49 195 -81
375 l-28 155 -7 -65 c-9 -73 6 -227 34 -365 10 -49 17 -91 16 -92 -1 -1 -53
39 -116 90 l-115 92 -6 60 c-4 33 -7 132 -8 220 -1 103 -5 155 -11 145 -14
-22 -31 -139 -39 -261 l-6 -111 -102 97 -103 97 -1 161 c-1 158 -2 161 -15
107 -7 -30 -16 -84 -20 -120 -10 -100 -14 -101 -73 -23 -70 93 -125 206 -117
243 4 21 2 28 -8 24 -9 -3 -17 13 -25 53 -17 76 -153 670 -184 800 l-25 103
87 47 c376 204 677 461 980 838 115 144 226 309 390 585 67 113 134 220 149
238 50 60 154 77 304 48z m-6994 -20 c35 -18 84 -90 252 -373 141 -238 240
-380 380 -549 275 -333 590 -597 923 -774 53 -28 95 -55 92 -59 -7 -12 -53
-267 -65 -363 -6 -48 -15 -172 -20 -275 -5 -103 -14 -206 -21 -228 -19 -67
-70 -195 -78 -195 -4 0 -15 25 -26 56 -10 30 -23 58 -29 61 -5 4 -7 -1 -3 -11
4 -10 12 -49 18 -88 l11 -70 -38 -55 c-36 -52 -140 -175 -154 -181 -3 -1 -11
44 -18 100 -6 57 -17 132 -24 168 -13 64 -13 61 -18 -135 l-5 -200 -50 -46
c-44 -40 -76 -68 -147 -127 -15 -13 -16 -8 -11 60 6 83 -11 283 -29 343 -11
36 -13 19 -19 -160 -3 -110 -10 -225 -14 -255 l-7 -55 -103 -82 c-102 -81
-103 -81 -113 -57 -9 18 -7 45 8 116 27 130 42 298 34 371 l-7 62 -24 -135
c-34 -193 -70 -350 -106 -460 -26 -80 -39 -103 -81 -149 l-51 -53 -7 33 c-4
19 -5 86 -3 149 3 91 9 130 30 190 42 119 64 226 70 334 l5 101 -39 -145 c-78
-285 -166 -493 -240 -565 -59 -56 -66 -44 -51 96 9 91 19 131 47 199 67 160
106 295 131 452 11 68 -1 68 -17 1 -37 -145 -157 -424 -240 -556 -74 -116
-161 -175 -161 -108 0 78 30 185 69 245 56 85 124 232 165 356 34 103 91 349
82 357 -2 2 -19 -40 -36 -94 -141 -426 -318 -723 -440 -735 -24 -3 -25 -1 -23
47 3 86 45 256 74 300 39 59 151 274 207 400 63 139 150 385 137 385 -3 0 -14
-24 -27 -52 -40 -96 -236 -481 -293 -578 -105 -178 -197 -281 -280 -316 -64
-26 -69 -23 -62 54 3 37 17 107 31 155 22 72 36 99 79 152 92 112 206 339 284
570 39 113 106 372 101 387 -2 6 -25 -48 -50 -118 -99 -274 -270 -642 -353
-759 -55 -77 -166 -182 -219 -206 -23 -10 -56 -19 -75 -19 l-34 0 6 73 c10
124 68 291 181 517 194 386 281 644 332 985 19 126 30 520 16 555 -9 21 -11
16 -11 -35 -2 -150 -52 -478 -107 -705 -70 -283 -154 -509 -292 -780 -297
-583 -362 -714 -396 -796 -45 -109 -80 -154 -141 -184 -58 -28 -75 -22 -75 27
0 123 145 575 254 791 31 62 52 111 47 107 -18 -11 -118 -169 -160 -252 -103
-207 -170 -418 -221 -693 -37 -205 -59 -259 -135 -339 -52 -55 -128 -102 -141
-88 -14 13 -4 118 32 352 70 454 157 772 277 1010 47 94 26 83 -39 -21 -193
-310 -312 -830 -369 -1609 -9 -115 -20 -226 -25 -245 -15 -55 -80 -149 -139
-203 -29 -26 -57 -47 -62 -47 -19 0 -7 462 22 785 22 257 86 651 149 930 103
449 257 843 432 1103 28 42 44 70 34 62 -34 -27 -176 -253 -245 -389 -206
-408 -349 -924 -415 -1501 -35 -305 -47 -534 -52 -995 -6 -531 -8 -546 -84
-661 -38 -59 -120 -144 -138 -144 -18 0 -68 327 -94 610 -21 230 -18 1024 5
1270 132 1420 563 2560 1199 3165 257 245 534 397 818 449 52 9 186 -2 218
-18z m3687 -166 c370 -25 691 -90 924 -187 31 -13 33 -16 17 -25 -35 -20 -254
-69 -400 -90 l-151 -21 -128 42 c-359 117 -735 117 -1095 -1 l-93 -31 -112 22
c-195 39 -417 98 -417 111 0 4 26 17 58 28 349 125 901 185 1397 152z"/>
</g>
</svg>
